<svg xmlns="http://www.w3.org/2000/svg" xmlns:xlink="http://www.w3.org/1999/xlink" width="512" zoomAndPan="magnify" viewBox="0 0 384 383.999986" height="512" preserveAspectRatio="xMidYMid meet" version="1.0"><defs><filter x="0%" y="0%" width="100%" height="100%" id="a5f7302c02"><feColorMatrix values="0 0 0 0 1 0 0 0 0 1 0 0 0 0 1 0 0 0 1 0" color-interpolation-filters="sRGB"/></filter><clipPath id="43763540a8"><path d="M 95 12 L 291.199219 12 L 291.199219 372 L 95 372 Z M 95 12 " clip-rule="nonzero"/></clipPath><clipPath id="120cc0bd02"><path d="M 94 93 L 291.199219 93 L 291.199219 372 L 94 372 Z M 94 93 " clip-rule="nonzero"/></clipPath><mask id="6af633e706"><g filter="url(#a5f7302c02)"><rect x="-38.4" width="460.8" fill="#000000" y="-38.399999" height="460.799983" fill-opacity="0.06"/></g></mask><clipPath id="1ca321706d"><path d="M 1 0.121094 L 197.199219 0.121094 L 197.199219 278.28125 L 1 278.28125 Z M 1 0.121094 " clip-rule="nonzero"/></clipPath><clipPath id="c5956feacd"><rect x="0" width="198" y="0" height="279"/></clipPath><mask id="b71774a147"><g filter="url(#a5f7302c02)"><rect x="-38.4" width="460.8" fill="#000000" y="-38.399999" height="460.799983" fill-opacity="0.06"/></g></mask><clipPath id="72881d91a3"><path d="M 0.441406 0.71875 L 113.71875 0.71875 L 113.71875 191.28125 L 0.441406 191.28125 Z M 0.441406 0.71875 " clip-rule="nonzero"/></clipPath><clipPath id="d2f250d61f"><rect x="0" width="114" y="0" height="192"/></clipPath><mask id="e91e2bc2d2"><g filter="url(#a5f7302c02)"><rect x="-38.4" width="460.8" fill="#000000" y="-38.399999" height="460.799983" fill-opacity="0.28"/></g></mask><clipPath id="ee64ff0bc9"><path d="M 0.480469 0.238281 L 61.199219 0.238281 L 61.199219 103.679688 L 0.480469 103.679688 Z M 0.480469 0.238281 " clip-rule="nonzero"/></clipPath><clipPath id="6fc10749d8"><rect x="0" width="62" y="0" height="104"/></clipPath></defs><g clip-path="url(#43763540a8)"><path fill="#6fb1fa" d="M 290.273438 103.320312 L 139.644531 369.417969 C 137.878906 372.546875 133.097656 370.761719 133.804688 367.238281 L 171.894531 178.410156 C 171.949219 178.136719 171.988281 177.859375 172.007812 177.578125 C 172.027344 177.300781 172.03125 177.019531 172.015625 176.742188 C 172.003906 176.460938 171.972656 176.183594 171.921875 175.90625 C 171.871094 175.632812 171.804688 175.359375 171.722656 175.09375 C 171.636719 174.824219 171.539062 174.5625 171.421875 174.308594 C 171.304688 174.054688 171.175781 173.808594 171.027344 173.570312 C 170.878906 173.332031 170.71875 173.101562 170.542969 172.882812 C 170.367188 172.664062 170.175781 172.460938 169.976562 172.265625 C 169.773438 172.070312 169.5625 171.890625 169.335938 171.722656 C 169.113281 171.554688 168.878906 171.402344 168.632812 171.261719 C 168.390625 171.125 168.140625 171 167.878906 170.894531 C 167.621094 170.789062 167.355469 170.699219 167.085938 170.625 C 166.816406 170.550781 166.542969 170.492188 166.265625 170.453125 C 165.988281 170.414062 165.707031 170.394531 165.425781 170.390625 C 165.148438 170.382812 164.867188 170.398438 164.589844 170.429688 C 164.3125 170.460938 164.035156 170.507812 163.761719 170.574219 L 106.328125 184.425781 C 98.667969 186.261719 92.453125 178.167969 96.222656 171.242188 L 99.085938 165.988281 L 126.753906 115.210938 L 181.742188 14.277344 C 183.3125 11.398438 187.707031 13.09375 186.941406 16.285156 L 166.035156 102.484375 L 164.679688 108.058594 C 164.613281 108.335938 164.5625 108.613281 164.53125 108.894531 C 164.5 109.179688 164.488281 109.460938 164.492188 109.746094 C 164.496094 110.03125 164.515625 110.3125 164.554688 110.59375 C 164.59375 110.875 164.652344 111.152344 164.726562 111.425781 C 164.800781 111.699219 164.894531 111.96875 165 112.230469 C 165.109375 112.496094 165.234375 112.75 165.375 112.996094 C 165.515625 113.242188 165.671875 113.480469 165.839844 113.707031 C 166.011719 113.933594 166.195312 114.152344 166.390625 114.355469 C 166.589844 114.558594 166.800781 114.75 167.019531 114.929688 C 167.242188 115.105469 167.472656 115.269531 167.714844 115.417969 C 167.957031 115.566406 168.210938 115.699219 168.46875 115.816406 C 168.726562 115.933594 168.992188 116.035156 169.261719 116.117188 C 169.535156 116.203125 169.8125 116.269531 170.089844 116.316406 C 170.371094 116.367188 170.652344 116.398438 170.9375 116.410156 C 171.21875 116.425781 171.503906 116.421875 171.785156 116.398438 C 172.070312 116.375 172.351562 116.335938 172.628906 116.277344 L 214.851562 107.558594 L 283.09375 93.476562 C 283.726562 93.347656 284.359375 93.304688 285 93.359375 C 285.640625 93.410156 286.261719 93.550781 286.863281 93.78125 C 287.460938 94.011719 288.015625 94.324219 288.527344 94.714844 C 289.039062 95.105469 289.484375 95.5625 289.859375 96.082031 C 290.238281 96.601562 290.539062 97.164062 290.753906 97.769531 C 290.972656 98.375 291.097656 98.996094 291.132812 99.640625 C 291.171875 100.28125 291.117188 100.914062 290.96875 101.542969 C 290.824219 102.167969 290.589844 102.761719 290.273438 103.320312 Z M 290.273438 103.320312 " fill-opacity="1" fill-rule="nonzero"/></g><g clip-path="url(#120cc0bd02)"><g mask="url(#6af633e706)"><g transform="matrix(1, 0, 0, 1, 94, 93)"><g clip-path="url(#c5956feacd)"><g clip-path="url(#1ca321706d)"><path fill="#000000" d="M 196.273438 10.320312 L 152.328125 87.957031 L 45.644531 276.417969 C 43.878906 279.546875 39.097656 277.761719 39.804688 274.238281 L 60.417969 172.042969 L 77.894531 85.410156 C 77.949219 85.136719 77.988281 84.859375 78.007812 84.582031 C 78.027344 84.300781 78.03125 84.019531 78.015625 83.742188 C 78.003906 83.460938 77.972656 83.183594 77.921875 82.90625 C 77.871094 82.632812 77.804688 82.359375 77.722656 82.09375 C 77.636719 81.824219 77.539062 81.5625 77.421875 81.308594 C 77.304688 81.054688 77.175781 80.808594 77.027344 80.570312 C 76.878906 80.332031 76.71875 80.101562 76.542969 79.882812 C 76.367188 79.664062 76.175781 79.460938 75.976562 79.265625 C 75.773438 79.070312 75.5625 78.890625 75.335938 78.722656 C 75.113281 78.554688 74.878906 78.402344 74.632812 78.261719 C 74.390625 78.125 74.140625 78 73.878906 77.894531 C 73.621094 77.789062 73.355469 77.699219 73.085938 77.625 C 72.816406 77.550781 72.542969 77.492188 72.265625 77.453125 C 71.988281 77.414062 71.707031 77.394531 71.425781 77.390625 C 71.148438 77.382812 70.867188 77.398438 70.589844 77.429688 C 70.3125 77.460938 70.035156 77.507812 69.761719 77.574219 L 12.328125 91.425781 C 4.667969 93.261719 -1.546875 85.167969 2.222656 78.242188 L 5.085938 72.988281 C 56.097656 63.144531 93.695312 39.976562 120.859375 14.566406 L 189.101562 0.484375 C 189.730469 0.355469 190.367188 0.316406 191.003906 0.371094 C 191.644531 0.421875 192.265625 0.5625 192.863281 0.796875 C 193.460938 1.027344 194.015625 1.335938 194.523438 1.726562 C 195.035156 2.117188 195.476562 2.574219 195.855469 3.09375 C 196.234375 3.609375 196.53125 4.171875 196.746094 4.777344 C 196.964844 5.378906 197.089844 6.003906 197.128906 6.644531 C 197.164062 7.285156 197.109375 7.917969 196.964844 8.542969 C 196.820312 9.167969 196.589844 9.761719 196.273438 10.320312 Z M 196.273438 10.320312 " fill-opacity="1" fill-rule="nonzero"/></g></g></g></g></g><g mask="url(#b71774a147)"><g transform="matrix(1, 0, 0, 1, 133, 180)"><g clip-path="url(#d2f250d61f)"><g clip-path="url(#72881d91a3)"><path fill="#000000" d="M 113.328125 0.957031 L 6.644531 189.417969 C 4.878906 192.546875 0.0976562 190.761719 0.804688 187.238281 L 21.417969 85.042969 C 54.546875 59.1875 86.734375 28.421875 113.328125 0.957031 Z M 113.328125 0.957031 " fill-opacity="1" fill-rule="nonzero"/></g></g></g></g><g mask="url(#e91e2bc2d2)"><g transform="matrix(1, 0, 0, 1, 126, 12)"><g clip-path="url(#6fc10749d8)"><g clip-path="url(#ee64ff0bc9)"><path fill="#ffffff" d="M 60.941406 4.292969 L 40.035156 90.488281 C 18.664062 100.214844 6.351562 102.644531 0.753906 103.210938 L 55.742188 2.277344 C 57.3125 -0.59375 61.707031 1.101562 60.941406 4.292969 Z M 60.941406 4.292969 " fill-opacity="1" fill-rule="nonzero"/></g></g></g></g></svg>